<svg xmlns="http://www.w3.org/2000/svg" width="28" height="26" fill="none" viewBox="0 0 28 26"><path fill="#00214D" d="M10.6842 0.0388489H2.27075C1.18826 0.0388489 0.307678 0.882991 0.307678 1.92069V6.75989C0.307678 7.79779 1.18826 8.64194 2.27075 8.64194H10.6842C11.7669 8.64194 12.6475 7.79779 12.6475 6.75989V1.92069C12.6475 0.882991 11.7669 0.0388489 10.6842 0.0388489Z"/><path fill="#00214D" d="M10.6842 10.7925H2.27075C1.18826 10.7925 0.307678 11.6367 0.307678 12.6746V23.966C0.307678 25.0037 1.18826 25.8479 2.27075 25.8479H10.6842C11.7669 25.8479 12.6475 25.0037 12.6475 23.966V12.6746C12.6475 11.6367 11.7669 10.7925 10.6842 10.7925Z"/><path fill="#00214D" d="M25.2677 17.2448H16.8543C15.7716 17.2448 14.891 18.089 14.891 19.1269V23.9661C14.891 25.0038 15.7716 25.8479 16.8543 25.8479H25.2677C26.3502 25.8479 27.2308 25.0038 27.2308 23.9661V19.1269C27.2308 18.089 26.3502 17.2448 25.2677 17.2448Z"/><path fill="#00214D" d="M25.2677 0.0388489H16.8543C15.7716 0.0388489 14.891 0.882991 14.891 1.92069V13.2122C14.891 14.2501 15.7716 15.0942 16.8543 15.0942H25.2677C26.3502 15.0942 27.2308 14.2501 27.2308 13.2122V1.92069C27.2308 0.882991 26.3502 0.0388489 25.2677 0.0388489V0.0388489Z"/></svg>